<svg width="5289" height="975" viewBox="0 0 5289 975" fill="none" xmlns="http://www.w3.org/2000/svg">
<path fill-rule="evenodd" clip-rule="evenodd" d="M714.961 773.372L531.273 956.582C507.641 980.152 469.327 980.152 445.695 956.582L17.8058 529.807C-5.8259 506.237 -5.82587 468.022 17.8058 444.452L445.695 17.6776C469.327 -5.89253 507.641 -5.89252 531.273 17.6776L714.961 200.887L898.649 17.6776C922.28 -5.89253 960.595 -5.89252 984.226 17.6776L1412.12 444.452C1435.75 468.022 1435.75 506.237 1412.12 529.807L984.226 956.582C960.595 980.152 922.28 980.152 898.649 956.582L714.961 773.372ZM146.173 487.13L488.484 145.71L629.383 286.242L470.759 444.452C447.128 468.022 447.128 506.237 470.759 529.807L629.383 688.017L488.484 828.549L146.173 487.13ZM800.539 286.242L941.438 145.71L1283.75 487.13L941.438 828.549L800.539 688.017L959.162 529.807C982.794 506.237 982.794 468.022 959.162 444.452L800.539 286.242ZM714.961 371.597L831.941 487.13L714.961 602.663L597.981 487.13L714.961 371.597Z" fill="white"/>
<path d="M831.941 487.13L714.961 371.597L597.981 487.13L714.961 602.663L831.941 487.13Z" fill="#F5BE49"/>
<path d="M1682.89 847.556V211.889H1824.96V319.903H1832.35C1845.49 283.484 1867.25 255.067 1897.64 234.65C1928.02 213.958 1964.29 203.612 2006.45 203.612C2049.15 203.612 2085.14 214.096 2114.43 235.064C2144 255.757 2164.8 284.036 2176.84 319.903H2183.41C2197.37 284.588 2220.92 256.446 2254.04 235.478C2287.43 214.234 2326.99 203.612 2372.7 203.612C2430.73 203.612 2478.09 222.097 2514.77 259.067C2551.45 296.038 2569.79 349.975 2569.79 420.881V847.556H2420.74V444.056C2420.74 404.603 2410.34 375.772 2389.54 357.563C2368.73 339.077 2343.27 329.835 2313.16 329.835C2277.3 329.835 2249.25 341.147 2228.99 363.77C2209.01 386.118 2199.02 415.225 2199.02 451.092V847.556H2053.25V437.849C2053.25 405.017 2043.4 378.807 2023.69 359.218C2004.26 339.629 1978.8 329.835 1947.32 329.835C1925.97 329.835 1906.53 335.353 1889.01 346.389C1871.5 357.149 1857.54 372.461 1847.13 392.326C1836.73 411.914 1831.53 434.814 1831.53 461.024V847.556H1682.89Z" fill="white"/>
<path d="M2949.52 859.971C2886.28 859.971 2831.67 846.728 2785.69 820.242C2739.97 793.48 2704.8 755.682 2680.16 706.848C2655.53 657.739 2643.21 599.938 2643.21 533.447C2643.21 468.059 2655.53 410.673 2680.16 361.287C2705.07 311.626 2739.84 273 2784.46 245.41C2829.07 217.545 2881.49 203.612 2941.72 203.612C2980.59 203.612 3017.27 209.958 3051.76 222.649C3086.52 235.064 3117.18 254.377 3143.73 280.587C3170.56 306.798 3191.63 340.181 3206.96 380.738C3222.29 421.019 3229.96 469.025 3229.96 524.756V570.693H2713.01V469.715H3087.48C3087.2 441.021 3081.05 415.501 3069 393.153C3056.96 370.53 3040.12 352.734 3018.5 339.767C2997.15 326.8 2972.24 320.316 2943.77 320.316C2913.38 320.316 2886.7 327.766 2863.7 342.664C2840.71 357.287 2822.78 376.599 2809.91 400.603C2797.32 424.33 2790.89 450.402 2790.61 478.819V566.969C2790.61 603.939 2797.32 635.667 2810.73 662.153C2824.15 688.363 2842.9 708.504 2866.99 722.574C2891.07 736.369 2919.27 743.267 2951.57 743.267C2973.19 743.267 2992.77 740.232 3010.29 734.162C3027.8 727.816 3043 718.574 3055.86 706.434C3068.73 694.295 3078.44 679.259 3085.01 661.325L3223.8 677.051C3215.04 714.022 3198.34 746.302 3173.7 773.891C3149.34 801.205 3118.14 822.449 3080.09 837.624C3042.04 852.522 2998.51 859.971 2949.52 859.971Z" fill="white"/>
<path d="M3486.92 860.385C3446.95 860.385 3410.95 853.212 3378.93 838.865C3347.17 824.242 3321.99 802.722 3303.38 774.305C3285.04 745.888 3275.87 710.849 3275.87 669.188C3275.87 633.322 3282.44 603.663 3295.58 580.212C3308.72 556.76 3326.64 537.999 3349.36 523.929C3372.08 509.858 3397.68 499.236 3426.15 492.062C3454.89 484.613 3484.59 479.233 3515.25 475.922C3552.2 472.06 3582.17 468.611 3605.17 465.576C3628.16 462.266 3644.86 457.299 3655.26 450.678C3665.94 443.78 3671.27 433.158 3671.27 418.812V416.329C3671.27 385.152 3662.1 361.011 3643.76 343.906C3625.42 326.8 3599.01 318.247 3564.52 318.247C3528.11 318.247 3499.23 326.248 3477.88 342.25C3456.8 358.252 3442.57 377.151 3435.18 398.947L3296.4 379.083C3307.35 340.457 3325.41 308.177 3350.6 282.243C3375.78 256.032 3406.57 236.444 3442.98 223.477C3479.39 210.234 3519.63 203.612 3563.7 203.612C3594.08 203.612 3624.33 207.199 3654.44 214.372C3684.55 221.545 3712.06 233.409 3736.97 249.963C3761.88 266.241 3781.86 288.45 3796.92 316.592C3812.25 344.733 3819.91 379.91 3819.91 422.123V847.556H3677.02V760.234H3672.1C3663.06 777.892 3650.33 794.446 3633.91 809.896C3617.76 825.07 3597.37 837.348 3572.73 846.728C3548.37 855.833 3519.76 860.385 3486.92 860.385ZM3525.51 750.302C3555.35 750.302 3581.22 744.37 3603.11 732.507C3625.01 720.367 3641.85 704.365 3653.62 684.501C3665.66 664.636 3671.68 642.978 3671.68 619.527V544.621C3667.03 548.483 3659.09 552.07 3647.87 555.381C3636.92 558.692 3624.6 561.588 3610.92 564.072C3597.23 566.555 3583.68 568.762 3570.27 570.693C3556.85 572.624 3545.22 574.28 3535.37 575.659C3513.19 578.694 3493.35 583.66 3475.83 590.558C3458.31 597.455 3444.49 607.112 3434.36 619.527C3424.23 631.666 3419.17 647.392 3419.17 666.705C3419.17 694.295 3429.16 715.125 3449.14 729.196C3469.12 743.267 3494.58 750.302 3525.51 750.302Z" fill="white"/>
<path d="M4067.73 0V847.556H3919.1V0H4067.73Z" fill="white"/>
<path d="M4162.1 847.556V752.371L4487.29 341.423V336.043H4172.77V211.889H4669.19V314.109L4359.6 718.022V723.402H4679.86V847.556H4162.1Z" fill="white"/>
<path d="M4784.19 852.504C4770.66 852.504 4759.05 847.706 4749.38 838.109C4739.71 828.513 4734.95 816.817 4735.1 803.022C4734.95 789.527 4739.71 777.982 4749.38 768.385C4759.05 758.789 4770.66 753.991 4784.19 753.991C4797.29 753.991 4808.67 758.789 4818.34 768.385C4828.16 777.982 4833.14 789.527 4833.29 803.022C4833.14 812.169 4830.76 820.491 4826.15 827.988C4821.68 835.485 4815.73 841.483 4808.29 845.981C4801.01 850.33 4792.97 852.504 4784.19 852.504Z" fill="white"/>
<path d="M4965.05 854.528C4943.33 854.528 4923.77 850.63 4906.36 842.833C4889.11 834.885 4875.42 823.19 4865.3 807.746C4855.34 792.301 4850.35 773.258 4850.35 750.617C4850.35 731.124 4853.92 715.005 4861.06 702.26C4868.2 689.515 4877.95 679.319 4890.3 671.671C4902.64 664.024 4916.55 658.251 4932.03 654.353C4947.65 650.304 4963.79 647.38 4980.45 645.581C5000.53 643.482 5016.82 641.608 5029.32 639.958C5041.82 638.159 5050.89 635.46 5056.54 631.861C5062.35 628.113 5065.25 622.34 5065.25 614.543V613.193C5065.25 596.25 5060.26 583.129 5050.3 573.833C5040.33 564.536 5025.97 559.888 5007.23 559.888C4987.44 559.888 4971.75 564.236 4960.14 572.933C4948.69 581.63 4940.95 591.901 4936.94 603.747L4861.51 592.951C4867.46 571.959 4877.28 554.415 4890.97 540.32C4904.65 526.076 4921.39 515.43 4941.18 508.382C4960.96 501.185 4982.83 497.586 5006.78 497.586C5023.29 497.586 5039.73 499.536 5056.1 503.434C5072.46 507.333 5087.41 513.78 5100.95 522.777C5114.49 531.624 5125.35 543.694 5133.53 558.988C5141.86 574.283 5146.03 593.401 5146.03 616.342V847.556H5068.37V800.099H5065.69C5060.78 809.695 5053.87 818.692 5044.94 827.088C5036.16 835.335 5025.08 842.008 5011.69 847.106C4998.45 852.054 4982.9 854.528 4965.05 854.528ZM4986.03 794.701C5002.24 794.701 5016.3 791.477 5028.2 785.029C5040.11 778.432 5049.25 769.735 5055.65 758.939C5062.2 748.143 5065.47 736.372 5065.47 723.627V682.917C5062.94 685.016 5058.63 686.966 5052.53 688.765C5046.58 690.564 5039.88 692.139 5032.44 693.488C5025.01 694.838 5017.64 696.037 5010.35 697.087C5003.06 698.137 4996.74 699.036 4991.38 699.786C4979.33 701.435 4968.55 704.134 4959.03 707.883C4949.51 711.631 4941.99 716.88 4936.49 723.627C4930.98 730.225 4928.23 738.771 4928.23 749.267C4928.23 764.262 4933.66 775.583 4944.52 783.23C4955.38 790.877 4969.22 794.701 4986.03 794.701Z" fill="white"/>
<path d="M5176.98 847.556V502.085H5257.77V847.556H5176.98ZM5217.6 453.053C5204.8 453.053 5193.8 448.78 5184.57 440.233C5175.35 431.536 5170.74 421.115 5170.74 408.969C5170.74 396.674 5175.35 386.253 5184.57 377.706C5193.8 369.009 5204.8 364.661 5217.6 364.661C5230.54 364.661 5241.55 369.009 5250.62 377.706C5259.85 386.253 5264.46 396.674 5264.46 408.969C5264.46 421.115 5259.85 431.536 5250.62 440.233C5241.55 448.78 5230.54 453.053 5217.6 453.053Z" fill="white"/>
<path d="M5288.92 410.535L5219.8 340.865L5150.67 410.535L5219.8 480.205L5288.92 410.535Z" fill="#F5BE49"/>
<path d="M2791.35 468.717V571.45L2702.16 577.871V468.717H2791.35Z" fill="white"/>
</svg>
